<svg id="SvgjsSvg1001" width="288" height="288" xmlns="http://www.w3.org/2000/svg" version="1.1" xmlns:xlink="http://www.w3.org/1999/xlink" xmlns:svgjs="http://svgjs.com/svgjs"><defs id="SvgjsDefs1002"></defs><g id="SvgjsG1008"><svg xmlns="http://www.w3.org/2000/svg" viewBox="0 0 24 24" width="288" height="288"><path d="M22.062 21h-1.438a.5.5 0 0 1-.5-.5V8.609l-7.836 5.546a.502.502 0 0 1-.578 0L3.875 8.609V20.5a.5.5 0 0 1-.5.5H1.938C.851 21 0 20.158 0 19.083V4.917c0-.524.2-1.009.562-1.365A1.93 1.93 0 0 1 1.938 3h.479c.104 0 .206.033.291.093L12 9.732l9.292-6.639A.506.506 0 0 1 21.583 3h.479c.527 0 1.017.196 1.376.553.362.353.562.838.562 1.364v14.167C24 20.158 23.149 21 22.062 21zm-.937-1h.938c.534 0 .937-.394.937-.917V4.917a.898.898 0 0 0-.263-.651.948.948 0 0 0-.675-.266h-.319l-9.452 6.754a.502.502 0 0 1-.582 0L2.257 4h-.319a.936.936 0 0 0-.671.262.905.905 0 0 0-.267.655v14.167c0 .531.395.916.938.916h.938V7.643a.499.499 0 0 1 .79-.408l8.336 5.9 8.336-5.9a.503.503 0 0 1 .79.408V20z" fill="#ffffff" class="color000 svgShape"></path></svg></g></svg>